<?xml version="1.0" encoding="UTF-8"?>
<svg id="Layer_1" data-name="Layer 1" xmlns="http://www.w3.org/2000/svg" viewBox="0 0 1000 1000">
  <defs>
    <style>
      .cls-1 {
        stroke-width: 0px;
      }

      .cls-2 {
        fill: none;
        stroke: #000;
        stroke-linecap: round;
        stroke-linejoin: round;
        stroke-width: 45px;
      }
    </style>
  </defs>
  <path class="cls-1" d="m436.3,63.36c49.16,0,90.64,32.79,103.83,77.68,11.77-7.6,25.78-12.03,40.84-12.03,41.65,0,75.41,33.76,75.41,75.41,0,11.84-2.74,23.04-7.6,33.01,127.65,56.98,216.62,185,216.62,333.82,0,201.8-163.59,365.39-365.39,365.39s-365.39-163.59-365.39-365.39c0-148.59,88.69-276.45,216.02-333.55-14.13-18.29-22.56-41.2-22.56-66.1,0-59.78,48.46-108.23,108.23-108.23m0-45c-20.67,0-40.74,4.06-59.66,12.06-18.25,7.72-34.63,18.76-48.69,32.82-14.06,14.06-25.1,30.44-32.82,48.69-8,18.92-12.06,38.99-12.06,59.66,0,15.97,2.45,31.68,7.29,46.77-53.17,31.6-98.62,74.88-133.05,127.01-44.3,67.08-67.71,145.19-67.71,225.88,0,55.38,10.86,109.13,32.27,159.76,20.67,48.87,50.26,92.76,87.93,130.43s81.56,67.26,130.43,87.93c50.62,21.41,104.37,32.27,159.76,32.27s109.13-10.86,159.76-32.27c48.87-20.67,92.76-50.26,130.43-87.93,37.68-37.68,67.26-81.56,87.93-130.43,21.41-50.62,32.27-104.37,32.27-159.76,0-80.82-23.48-159.03-67.91-226.18-36.25-54.79-84.68-99.76-141.43-131.66.22-2.97.33-5.97.33-8.98,0-32.16-12.52-62.4-35.27-85.14-22.74-22.74-52.98-35.27-85.14-35.27-6.06,0-12.08.45-18.02,1.35-.24-.35-.48-.7-.72-1.05-9.22-13.29-20.42-24.98-33.29-34.77-26.83-20.4-58.87-31.18-92.64-31.18h0Z"/>
  <path class="cls-2" d="m261.06,581.3c58.19,34.92,116.38,34.92,174.58,0"/>
  <path class="cls-2" d="m564.36,581.3c58.19,34.92,116.38,34.92,174.58,0"/>
  <path class="cls-2" d="m324.56,758.64c116.96,70.18,233.93,70.18,350.89,0"/>
</svg>