<?xml version="1.0" encoding="UTF-8"?>
<svg xmlns="http://www.w3.org/2000/svg" xmlns:xlink="http://www.w3.org/1999/xlink" viewBox="0 0 856.06 965.88">
  <defs>
    <style>
      .cls-1 {
        fill: #e2e2c9;
      }

      .cls-1, .cls-2, .cls-3 {
        stroke-width: 0px;
      }

      .cls-3 {
        fill: #ffffe2;
      }

      .cls-4 {
        mask: url(#mask-1);
      }

      .cls-5 {
        mask: url(#mask);
      }

      .cls-6 {
        fill: none;
        stroke: #000;
        stroke-linecap: round;
        stroke-linejoin: round;
        stroke-width: 20px;
      }
    </style>
    <mask id="mask" x="112.34" y="354.86" width="289.02" height="319.24" maskUnits="userSpaceOnUse">
      <g>
        <g>
          <path class="cls-3" d="m264.69,416.68c-1.56,0-3.13-.17-4.66-.52-11.42-2.56-18.63-13.94-16.06-25.36,2.19-9.76,10.71-16.58,20.7-16.58,1.56,0,3.13.17,4.66.52,5.53,1.24,10.25,4.56,13.28,9.35,3.03,4.79,4.02,10.48,2.78,16.01-2.19,9.76-10.71,16.58-20.7,16.58Z"/>
          <path class="cls-2" d="m264.67,384.22c.81,0,1.64.09,2.47.28,6.05,1.36,9.85,7.37,8.5,13.42-1.17,5.22-5.81,8.77-10.95,8.77-.81,0-1.64-.09-2.47-.28-6.05-1.36-9.85-7.37-8.5-13.42,1.17-5.22,5.81-8.77,10.95-8.77m0-20h0c-6.99,0-13.87,2.39-19.36,6.74-5.59,4.42-9.53,10.69-11.1,17.65-1.83,8.14-.38,16.5,4.09,23.55,4.46,7.05,11.4,11.93,19.54,13.76,2.25.51,4.55.76,6.85.76,6.99,0,13.87-2.39,19.36-6.74,5.59-4.42,9.53-10.69,11.1-17.65,1.83-8.14.38-16.5-4.09-23.55-4.46-7.05-11.4-11.93-19.54-13.76-2.25-.5-4.55-.76-6.85-.76h0Z"/>
        </g>
        <rect class="cls-3" x="145.41" y="354.86" width="118.09" height="81.17"/>
      </g>
    </mask>
    <mask id="mask-1" x="361.63" y="196.71" width="350.41" height="330.64" maskUnits="userSpaceOnUse">
      <g>
        <g>
          <path class="cls-3" d="m393.14,411.79c-10.54,0-19.46-7.55-21.21-17.95-1.97-11.7,5.94-22.83,17.65-24.8,1.19-.2,2.4-.3,3.59-.3,10.54,0,19.46,7.55,21.21,17.95,1.97,11.7-5.94,22.83-17.65,24.8-1.19.2-2.4.3-3.59.3Z"/>
          <path class="cls-2" d="m393.17,378.73c5.52,0,10.4,3.98,11.35,9.61,1.06,6.28-3.17,12.22-9.45,13.28-.65.11-1.29.16-1.93.16-5.52,0-10.4-3.98-11.35-9.61-1.06-6.28,3.17-12.22,9.45-13.28.65-.11,1.29-.16,1.93-.16m0-20h0c-1.75,0-3.52.15-5.25.44-17.14,2.89-28.74,19.19-25.85,36.33,2.57,15.23,15.64,26.29,31.07,26.29,1.75,0,3.52-.15,5.25-.44,8.3-1.4,15.57-5.95,20.45-12.81,4.88-6.86,6.8-15.21,5.4-23.52-2.57-15.23-15.64-26.29-31.07-26.29h0Z"/>
        </g>
        <rect class="cls-3" x="367.91" y="330.94" width="49.22" height="54.88"/>
      </g>
    </mask>
  </defs>
  <g id="Layer_4" data-name="Layer 4">
    <g>
      <g>
        <circle class="cls-1" cx="208.01" cy="59.06" r="45.77" transform="translate(102.74 247.94) rotate(-76.72)"/>
        <path class="cls-2" d="m208.01,23.29c19.76,0,35.77,16.02,35.77,35.77s-16.02,35.77-35.77,35.77-35.77-16.02-35.77-35.77,16.02-35.77,35.77-35.77m0-20c-30.75,0-55.77,25.02-55.77,55.77s25.02,55.77,55.77,55.77,55.77-25.02,55.77-55.77S238.76,3.29,208.01,3.29h0Z"/>
      </g>
      <g>
        <circle class="cls-1" cx="381.36" cy="138.6" r="61.33"/>
        <path class="cls-2" d="m381.36,87.27c28.35,0,51.33,22.98,51.33,51.33s-22.98,51.33-51.33,51.33-51.33-22.98-51.33-51.33,22.98-51.33,51.33-51.33m0-20c-39.33,0-71.33,32-71.33,71.33s32,71.33,71.33,71.33,71.33-32,71.33-71.33-32-71.33-71.33-71.33h0Z"/>
      </g>
      <g>
        <path class="cls-1" d="m211.45,834.69c-65.07,0-118-52.93-118-118,0-42.54,22.78-81.33,59.03-102.23-19.53-23.92-30.14-53.59-30.14-84.87,0-35,13.33-67.91,37.1-92.78-48.17-16.87-81.48-62.62-81.48-115.11,0-67.26,54.72-121.98,121.98-121.98s121.98,54.72,121.98,121.98c0,8.52-.86,16.9-2.57,25.08,15.41-6.85,32.12-10.4,49.4-10.4,8.23,0,16.38.82,24.37,2.44,5.17-34.52,21.81-66.24,47.61-90.33,28.85-26.94,66.49-41.78,105.98-41.78,85.64,0,155.32,69.68,155.32,155.32,0,16.64-2.6,32.92-7.74,48.54,49.86,17.78,83.82,65.26,83.82,119.02,0,38.83-17.96,75.52-48.35,99.41,1.25,7.06,1.88,14.24,1.88,21.43,0,67.21-54.68,121.9-121.9,121.9s-121.9-54.68-121.9-121.9c0-35.16,14.87-68.04,41.03-91.21-2.33-9.68-3.5-19.62-3.5-29.63,0-4.54.25-9.09.73-13.61-15.3-2.02-30.04-6.27-44.03-12.69-16.6,41.88-55.19,71.39-100.27,76.19-13.12,32.79-38.88,59.27-71.1,73.39,12.17,18.93,18.75,41.15,18.75,63.83,0,65.07-52.93,118-118,118Z"/>
        <path class="cls-2" d="m199.94,209.71c61.85,0,111.98,50.14,111.98,111.98,0,16.82-3.72,32.77-10.36,47.09,18.71-14.07,41.97-22.41,67.19-22.41,11.5,0,22.59,1.74,33.04,4.96,5.47-75.27,68.26-134.63,144.93-134.63s145.32,65.06,145.32,145.32c0,19.46-3.83,38.01-10.77,54.97,49.97,13.07,86.84,58.52,86.84,112.59,0,39.35-19.53,74.13-49.42,95.19,1.93,8.24,2.96,16.82,2.96,25.65,0,61.8-50.1,111.9-111.9,111.9s-111.9-50.1-111.9-111.9c0-35.51,16.54-67.15,42.33-87.65-3.13-10.52-4.81-21.66-4.81-33.2,0-7.71.76-15.25,2.19-22.54-22.12-1.38-42.89-7.7-61.23-17.87-12.89,44.96-53.2,78.32-101.68,80.84-12.71,37.02-42.37,66.16-79.72,78.14,15.33,18.65,24.53,42.51,24.53,68.54,0,59.65-48.35,108-108,108s-108-48.35-108-108c0-44.45,26.86-82.63,65.23-99.19-22.46-22.52-36.34-53.6-36.34-87.91,0-39.63,18.51-74.93,47.36-97.73-52.19-9.52-91.75-55.22-91.75-110.16,0-61.85,50.14-111.98,111.98-111.98m0-20c-35.25,0-68.4,13.73-93.33,38.66-24.93,24.93-38.66,58.07-38.66,93.33,0,51.84,30.03,97.61,74.92,119.08-6.02,7.72-11.27,16.03-15.59,24.76-9.91,20.02-14.94,41.57-14.94,64.05,0,29.82,8.98,58.27,25.65,82.26-33.77,23.65-54.54,62.54-54.54,104.85,0,34.19,13.31,66.33,37.49,90.51,24.18,24.18,56.32,37.49,90.51,37.49s66.33-13.31,90.51-37.49c24.18-24.18,37.49-56.32,37.49-90.51,0-20.82-5.12-41.29-14.7-59.54,28.16-15.05,50.85-39.21,64.01-68.49,42.84-6.53,79.6-33.77,98.47-72.34,9.15,3.54,18.58,6.23,28.23,8.07-.07,1.73-.1,3.46-.1,5.19,0,8.82.85,17.58,2.52,26.18-25.59,24.77-40.04,58.61-40.04,94.66s13.72,68.35,38.63,93.27,58.03,38.63,93.27,38.63,68.35-13.72,93.27-38.63,38.63-58.03,38.63-93.27c0-5.8-.38-11.6-1.14-17.33,12.93-11.12,23.79-24.64,31.77-39.68,10.36-19.53,15.83-41.6,15.83-63.82,0-54.79-32.67-103.53-81.63-124.94,3.69-13.83,5.55-28.1,5.55-42.62,0-22.31-4.37-43.96-13-64.36-8.33-19.69-20.24-37.37-35.42-52.54-15.18-15.18-32.85-27.09-52.54-35.42-20.39-8.63-42.05-13-64.36-13-42.04,0-82.1,15.79-112.81,44.47-24.95,23.3-41.86,53.33-48.86,86.2-5.39-.67-10.82-1-16.29-1-12.77,0-25.25,1.79-37.19,5.29.24-3.3.37-6.62.37-9.97,0-35.25-13.73-68.4-38.66-93.33-24.93-24.93-58.07-38.66-93.33-38.66h0Z"/>
      </g>
    </g>
  </g>
  <g id="Layer_5" data-name="Layer 5">
    <g class="cls-5">
      <path class="cls-2" d="m256.85,405.08c68.76,0,124.51,55.74,124.51,124.51s-55.74,124.51-124.51,124.51-124.51-55.74-124.51-124.51,55.74-124.51,124.51-124.51m0-20c-38.6,0-74.89,15.03-102.18,42.33-27.29,27.29-42.33,63.58-42.33,102.18s15.03,74.89,42.33,102.18c27.29,27.29,63.58,42.33,102.18,42.33s74.89-15.03,102.18-42.33c27.29-27.29,42.33-63.58,42.33-102.18s-15.03-74.89-42.33-102.18c-27.29-27.29-63.58-42.33-102.18-42.33h0Z"/>
    </g>
    <g class="cls-4">
      <path class="cls-2" d="m546.71,216.71c80.26,0,145.32,65.06,145.32,145.32s-65.06,145.32-145.32,145.32-145.32-65.06-145.32-145.32,65.06-145.32,145.32-145.32m0-20c-22.31,0-43.96,4.37-64.36,13-19.69,8.33-37.37,20.24-52.54,35.42s-27.09,32.85-35.42,52.54c-8.63,20.39-13,42.05-13,64.36s4.37,43.96,13,64.36c8.33,19.69,20.24,37.37,35.42,52.54s32.85,27.09,52.54,35.42c20.39,8.63,42.05,13,64.36,13s43.96-4.37,64.36-13c19.69-8.33,37.37-20.24,52.54-35.42s27.09-32.85,35.42-52.54c8.63-20.39,13-42.05,13-64.36s-4.37-43.96-13-64.36c-8.33-19.69-20.24-37.37-35.42-52.54s-32.85-27.09-52.54-35.42c-20.39-8.63-42.05-13-64.36-13h0Z"/>
    </g>
  </g>
  <g id="Layer_2" data-name="Layer 2">
    <g>
      <path class="cls-3" d="m434.87,952.59c-58.58,0-113.65-22.81-155.07-64.23-41.42-41.42-64.23-96.49-64.23-155.07,0-82.41,46.42-157.79,119.21-195.17-5.52-10.33-8.39-21.8-8.39-33.76,0-39.7,32.3-72,72-72,27.77,0,52.99,16.28,64.85,40.75,5.74-2.07,11.83-3.14,18.02-3.14,29.33,0,53.19,23.86,53.19,53.19,0,4.71-.6,9.32-1.8,13.78,74.13,36.96,121.53,113.02,121.53,196.34,0,58.58-22.81,113.65-64.23,155.07-41.42,41.42-96.49,64.23-155.07,64.23Z"/>
      <path class="cls-2" d="m398.38,442.36c28.16,0,51.92,18.78,59.47,44.5,6.74-4.35,14.77-6.89,23.39-6.89,23.86,0,43.19,19.34,43.19,43.19,0,6.78-1.57,13.2-4.35,18.91,73.12,32.64,124.08,105.97,124.08,191.21,0,115.59-93.71,209.3-209.3,209.3s-209.3-93.71-209.3-209.3c0-85.11,50.81-158.35,123.74-191.06-8.09-10.47-12.92-23.6-12.92-37.86,0-34.24,27.76-62,62-62m0-20c-45.21,0-82,36.78-82,82,0,10.21,1.84,20.12,5.41,29.4-31.45,17.84-58.29,42.88-78.4,73.33-24.75,37.48-37.83,81.12-37.83,126.2,0,30.95,6.07,60.98,18.03,89.26,11.55,27.31,28.08,51.83,49.13,72.88,21.05,21.05,45.57,37.58,72.88,49.13,28.28,11.96,58.31,18.03,89.26,18.03s60.98-6.07,89.26-18.03c27.31-11.55,51.83-28.08,72.88-49.13,21.05-21.05,37.58-45.57,49.13-72.88,11.96-28.28,18.03-58.31,18.03-89.26,0-45.16-13.12-88.86-37.94-126.37-20.96-31.67-49.19-57.47-82.33-75.39.36-2.75.54-5.54.54-8.36,0-34.85-28.35-63.19-63.19-63.19-4.43,0-8.82.46-13.1,1.37-5.29-8.56-12.15-16.17-20.2-22.29-14.36-10.91-31.5-16.68-49.57-16.68h0Z"/>
    </g>
  </g>
  <g id="Layer_3" data-name="Layer 3">
    <path class="cls-6" d="m298.01,739.05c33.33,20,66.67,20,100,0"/>
    <path class="cls-6" d="m471.74,739.05c33.33,20,66.67,20,100,0"/>
    <path class="cls-6" d="m334.37,840.63c67,40.2,134,40.2,200.99,0"/>
  </g>
</svg>